<?xml version="1.0" encoding="UTF-8" standalone="no"?>
<svg width="58px" height="61px" viewBox="0 0 58 61" version="1.1" xmlns="http://www.w3.org/2000/svg" xmlns:xlink="http://www.w3.org/1999/xlink" xmlns:sketch="http://www.bohemiancoding.com/sketch/ns">
    <!-- Generator: Sketch 3.3.3 (12081) - http://www.bohemiancoding.com/sketch -->
    <title>Bundles-logo</title>
    <desc>Created with Sketch.</desc>
    <defs></defs>
    <g id="Page-1" stroke="none" stroke-width="1" fill="none" fill-rule="evenodd" sketch:type="MSPage">
        <g id="Bundles-logo" sketch:type="MSLayerGroup" transform="translate(1.000000, 1.000000)">
            <g id="Page-1" sketch:type="MSShapeGroup">
                <g id="Oval-1-+-layers">
                    <path d="M28,59 C43.463973,59 56,45.7924001 56,29.5 C56,13.2075999 43.463973,0 28,0 C12.536027,0 0,13.2075999 0,29.5 C0,45.7924001 12.536027,59 28,59 L28,59 Z" id="Oval-1" stroke="#979797" fill="#FFFFFF"></path>
                    <g id="layers" transform="translate(28.194118, 29.638824) rotate(-90.000000) translate(-28.194118, -29.638824) translate(12.194118, 12.430491)">
                        <g id="Group">
                            <path d="M15.365,0.501066177 L0.485882353,8.66128677 C-0.125588235,9.01919117 -0.125588235,10.0213236 0.485882353,10.379228 L15.365,18.5394486 C15.7726471,18.7541912 16.2482353,18.7541912 16.6558824,18.5394486 L31.535,10.379228 C32.1464706,10.0213236 32.1464706,9.01919117 31.535,8.66128677 L16.5879412,0.501066177 C16.1802941,0.28632353 15.7726471,0.28632353 15.365,0.501066177 L15.365,0.501066177 L15.365,0.501066177 Z" id="Shape" fill="#4990E2"></path>
                            <path d="M31.4670588,16.2488603 L28.6814706,14.7456617 C28.5455882,14.6740809 28.3417647,14.6740809 28.1379412,14.7456617 L17.4711765,20.6152941 C16.9955882,20.9016177 16.4520588,20.9731986 15.9764706,20.9731986 C15.4329412,20.9731986 14.9573529,20.8300367 14.4817647,20.6152941 L3.815,14.7456617 C3.67911765,14.6740809 3.47529412,14.6740809 3.27147059,14.7456617 L0.485882353,16.2488603 C-0.125588235,16.6067647 -0.125588235,17.608897 0.485882353,17.9668014 L15.365,26.127022 C15.7726471,26.3417647 16.2482353,26.3417647 16.6558824,26.127022 L31.535,17.9668014 C32.0785294,17.608897 32.0785294,16.6067647 31.4670588,16.2488603 L31.4670588,16.2488603 L31.4670588,16.2488603 Z" id="Shape" fill="#FF5722"></path>
                            <path d="M31.4670588,23.9795956 L28.6814706,22.476397 C28.5455882,22.4048162 28.3417647,22.4048162 28.1379412,22.476397 L17.4711765,28.3460294 C16.9955882,28.632353 16.4520588,28.7039338 15.9764706,28.7039338 C15.4329412,28.7039338 14.9573529,28.560772 14.4817647,28.3460294 L3.815,22.476397 C3.67911765,22.4048162 3.47529412,22.4048162 3.27147059,22.476397 L0.485882353,23.9795956 C-0.125588235,24.3375 -0.125588235,25.3396323 0.485882353,25.6975367 L15.365,33.8577573 C15.7726471,34.0725 16.2482353,34.0725 16.6558824,33.8577573 L31.535,25.6975367 C32.0785294,25.3396323 32.0785294,24.3375 31.4670588,23.9795956 L31.4670588,23.9795956 L31.4670588,23.9795956 Z" id="Shape" fill="#F1C40F"></path>
                        </g>
                    </g>
                </g>
            </g>
        </g>
    </g>
</svg>