<svg xmlns="http://www.w3.org/2000/svg" xmlns:xlink="http://www.w3.org/1999/xlink" version="1.1" x="0px" y="0px" viewBox="0 0 48 60" enable-background="new 0 0 48 48" xml:space="preserve"><g><path fill="#000000" d="M23.1,0.7L1.2,12.1c-0.9,0.5-0.9,1.9,0,2.4l21.9,11.4c0.6,0.3,1.3,0.3,1.9,0l21.9-11.4   c0.9-0.5,0.9-1.9,0-2.4L24.9,0.7C24.3,0.4,23.7,0.4,23.1,0.7z"/><path fill="#000000" d="M46.8,22.7l-4.1-2.1c-0.2-0.1-0.5-0.1-0.8,0l-15.7,8.2c-0.7,0.4-1.5,0.5-2.2,0.5c-0.8,0-1.5-0.2-2.2-0.5   L6.1,20.6c-0.2-0.1-0.5-0.1-0.8,0l-4.1,2.1c-0.9,0.5-0.9,1.9,0,2.4l21.9,11.4c0.6,0.3,1.3,0.3,1.9,0l21.9-11.4   C47.7,24.6,47.7,23.2,46.8,22.7z"/><path fill="#000000" d="M46.8,33.5l-4.1-2.1c-0.2-0.1-0.5-0.1-0.8,0l-15.7,8.2c-0.7,0.4-1.5,0.5-2.2,0.5c-0.8,0-1.5-0.2-2.2-0.5   L6.1,31.4c-0.2-0.1-0.5-0.1-0.8,0l-4.1,2.1c-0.9,0.5-0.9,1.9,0,2.4l21.9,11.4c0.6,0.3,1.3,0.3,1.9,0l21.9-11.4   C47.7,35.4,47.7,34,46.8,33.5z"/></g><text x="0" y="63" fill="#000000" font-size="5px" font-weight="bold" font-family="'Helvetica Neue', Helvetica, Arial-Unicode, Arial, Sans-serif">Created by Creative Stall</text><text x="0" y="68" fill="#000000" font-size="5px" font-weight="bold" font-family="'Helvetica Neue', Helvetica, Arial-Unicode, Arial, Sans-serif">from the Noun Project</text></svg>