<svg xmlns="http://www.w3.org/2000/svg" xmlns:xlink="http://www.w3.org/1999/xlink" version="1.1" x="0px" y="0px" viewBox="0 0 48 60" enable-background="new 0 0 48 48" xml:space="preserve"><g><path fill="#000000" d="M15.8,0.5l-0.3,0.3l0,0l-9.8,9.8c0,0,0,0,0,0l-0.3,0.3v36.6h37.2v-47H15.8z M15.2,3.9v6.4H8.8L12,7.1   L15.2,3.9z M40.6,45.5H7.4c0,0,0-32,0-33.2h8.8c0.6,0,1-0.4,1-1V2.5h23.4V45.5z"/><rect x="11.3" y="21.6" fill="#000000" width="25.4" height="2"/><rect x="11.3" y="29.1" fill="#000000" width="25.4" height="2"/><rect x="11.3" y="36.5" fill="#000000" width="25.4" height="2"/><path fill="#000000" d="M36.7,16.2V4.4h-9.8v11.8H36.7z M28.9,6.4h5.8v7.8h-5.8V6.4z"/></g><text x="0" y="63" fill="#000000" font-size="5px" font-weight="bold" font-family="'Helvetica Neue', Helvetica, Arial-Unicode, Arial, Sans-serif">Created by Creative Stall</text><text x="0" y="68" fill="#000000" font-size="5px" font-weight="bold" font-family="'Helvetica Neue', Helvetica, Arial-Unicode, Arial, Sans-serif">from the Noun Project</text></svg>