<?xml version="1.0" encoding="UTF-8" standalone="no"?>
<svg width="56px" height="60px" viewBox="0 0 56 60" version="1.1" xmlns="http://www.w3.org/2000/svg" xmlns:xlink="http://www.w3.org/1999/xlink" xmlns:sketch="http://www.bohemiancoding.com/sketch/ns">
    <!-- Generator: Sketch 3.3.3 (12081) - http://www.bohemiancoding.com/sketch -->
    <title>resume copy</title>
    <desc>Created with Sketch.</desc>
    <defs></defs>
    <g id="Page-1" stroke="none" stroke-width="1" fill="none" fill-rule="evenodd" sketch:type="MSPage">
        <g id="resume" sketch:type="MSLayerGroup" transform="translate(9.000000, 6.000000)" fill="#000000">
            <g id="Group" sketch:type="MSShapeGroup">
                <path d="M10.8,0.5 L10.5,0.8 L0.7,10.6 L0.7,10.6 L0.4,10.9 L0.4,47.5 L37.6,47.5 L37.6,0.5 L10.8,0.5 L10.8,0.5 Z M10.2,3.9 L10.2,10.3 L3.8,10.3 L7,7.1 L10.2,3.9 L10.2,3.9 Z M35.6,45.5 L2.4,45.5 L2.4,12.3 L11.2,12.3 C11.8,12.3 12.2,11.9 12.2,11.3 L12.2,2.5 L35.6,2.5 L35.6,45.5 L35.6,45.5 Z" id="Shape"></path>
                <rect id="Rectangle-path" x="6.3" y="21.6" width="25.4" height="2"></rect>
                <rect id="Rectangle-path" x="6.3" y="29.1" width="25.4" height="2"></rect>
                <rect id="Rectangle-path" x="6.3" y="36.5" width="25.4" height="2"></rect>
                <path d="M31.7,16.2 L31.7,4.4 L21.9,4.4 L21.9,16.2 L31.7,16.2 L31.7,16.2 Z M23.9,6.4 L29.7,6.4 L29.7,14.2 L23.9,14.2 L23.9,6.4 L23.9,6.4 Z" id="Shape"></path>
            </g>
        </g>
    </g>
</svg>