<?xml version="1.0" encoding="UTF-8" standalone="no"?>
<svg width="56px" height="60px" viewBox="0 0 56 60" version="1.1" xmlns="http://www.w3.org/2000/svg" xmlns:xlink="http://www.w3.org/1999/xlink" xmlns:sketch="http://www.bohemiancoding.com/sketch/ns">
    <!-- Generator: Sketch 3.3.3 (12081) - http://www.bohemiancoding.com/sketch -->
    <title>work</title>
    <desc>Created with Sketch.</desc>
    <defs></defs>
    <g id="Page-1" stroke="none" stroke-width="1" fill="none" fill-rule="evenodd" sketch:type="MSPage">
        <g id="work" sketch:type="MSLayerGroup" fill="#000000">
            <path d="M53.1572398,12.5957143 L39.8721267,12.5957143 L39.8721267,3.92571429 C39.8721267,2.15142857 38.701448,0.711428571 37.2590045,0.711428571 L18.8800452,0.711428571 C17.4376018,0.711428571 16.2669231,2.15142857 16.2669231,3.92571429 L16.2669231,12.5957143 L2.98180995,12.5957143 C1.53936652,12.5957143 0.368687783,14.0357143 0.368687783,15.81 L0.368687783,55.9157143 C0.368687783,57.69 1.53936652,59.13 2.98180995,59.13 L53.1537557,59.13 C54.5961991,59.13 55.7668778,57.69 55.7668778,55.9157143 L55.7668778,15.81 C55.770362,14.0357143 54.5996833,12.5957143 53.1572398,12.5957143 L53.1572398,12.5957143 Z M21.4931674,7.14428571 L34.6458824,7.14428571 L34.6458824,12.6 L21.4931674,12.6 L21.4931674,7.14428571 L21.4931674,7.14428571 Z M50.5441176,52.71 L5.59841629,52.71 L5.59841629,19.0328571 L50.5441176,19.0328571 L50.5441176,52.71 L50.5441176,52.71 Z" id="Shape" sketch:type="MSShapeGroup"></path>
        </g>
    </g>
</svg>