<?xml version="1.0" standalone="no"?>
<!DOCTYPE svg PUBLIC "-//W3C//DTD SVG 20010904//EN"
 "http://www.w3.org/TR/2001/REC-SVG-20010904/DTD/svg10.dtd">
<svg version="1.0" xmlns="http://www.w3.org/2000/svg"
 width="205.000000pt" height="206.000000pt" viewBox="0 0 205.000000 206.000000"
 preserveAspectRatio="xMidYMid meet">
<metadata>
Created by potrace 1.11, written by Peter Selinger 2001-2013
</metadata>
<g transform="translate(0.000000,206.000000) scale(0.100000,-0.100000)"
fill="#000000" stroke="none">
<path d="M0 1035 l0 -1025 1025 0 1025 0 0 1025 0 1025 -1025 0 -1025 0 0
-1025z m497 388 c16 -43 58 -156 94 -250 35 -95 66 -173 69 -173 3 0 46 111
96 248 l92 247 71 3 71 3 0 -371 0 -370 -45 0 -45 0 0 328 -1 327 -96 -257
-96 -258 -47 0 -48 0 -93 251 -94 252 -3 -322 -2 -321 -50 0 -50 0 0 370 0
370 74 0 74 0 29 -77z m803 -73 l0 -150 185 0 185 0 0 150 0 150 50 0 50 0 0
-370 0 -370 -50 0 -50 0 0 180 0 180 -185 0 -185 0 0 -180 0 -180 -50 0 -50 0
0 370 0 370 50 0 50 0 0 -150z"/>
</g>
</svg>
