<svg xmlns="http://www.w3.org/2000/svg" xmlns:xlink="http://www.w3.org/1999/xlink" version="1.1" x="0px" y="0px" viewBox="377 594.5 35.5 43.125" enable-background="new 377 594.5 35.5 34.5" xml:space="preserve"><path fill="#000000" d="M402.875,608.689h-3.813v-2.023c0-0.414-0.336-0.75-0.75-0.75h-5.275c-0.414,0-0.75,0.336-0.75,0.75v2.023  h-3.813c-0.414,0-0.75,0.336-0.75,0.75v9.358c0,0.414,0.336,0.75,0.75,0.75h14.4c0.414,0,0.75-0.336,0.75-0.75v-9.358  C403.625,609.025,403.289,608.689,402.875,608.689z M393.787,607.417h3.775v1.273h-3.775V607.417z M402.125,618.049h-12.9v-7.858  h12.9V618.049z"/><text x="377" y="644" fill="#000000" font-size="5px" font-weight="bold" font-family="'Helvetica Neue', Helvetica, Arial-Unicode, Arial, Sans-serif">Created by Ash N</text><text x="377" y="649" fill="#000000" font-size="5px" font-weight="bold" font-family="'Helvetica Neue', Helvetica, Arial-Unicode, Arial, Sans-serif">from the Noun Project</text></svg>