<svg xmlns="http://www.w3.org/2000/svg" xmlns:xlink="http://www.w3.org/1999/xlink" version="1.1" x="0px" y="0px" viewBox="0 0 60 75" enable-background="new 0 0 60 60" xml:space="preserve"><g><g><path d="M53.0311775,0.2504883H14.7440681c-2.5698242,0-4.6601562,2.0898438-4.6601562,4.6591797v10.9404297H6.1737561    c-2.1308594,0-3.8647463,1.734375-3.8647463,3.8652344v36.1699219c0,2.1308594,1.733887,3.8652344,3.8647463,3.8652344    c0.0443726,0,0.0840454-0.0144043,0.125-0.0251465c0.0409546,0.0107422,0.0806274,0.0251465,0.125,0.0251465h46.6074219    c2.5698242,0,4.6601562-2.0908203,4.6601562-4.6601562V4.909668C57.6913338,2.340332,55.6010017,0.2504883,53.0311775,0.2504883z     M3.3090098,55.8852539V19.715332c0-1.5800781,1.2851565-2.8652344,2.8647463-2.8652344h3.9101558V32.409668H8.5131111    c-0.2763672,0-0.5,0.2236328-0.5,0.5s0.2236328,0.5,0.5,0.5h1.5708008v5.1796875H8.5131111c-0.2763672,0-0.5,0.2236328-0.5,0.5    s0.2236328,0.5,0.5,0.5h1.5708008v5.1806641H8.5131111c-0.2763672,0-0.5,0.2236328-0.5,0.5s0.2236328,0.5,0.5,0.5h1.5708008    v5.1796875H8.5131111c-0.2763672,0-0.5,0.2236328-0.5,0.5s0.2236328,0.5,0.5,0.5h1.5708008v3.140625    c0,2.0185547-1.6420898,3.6601562-3.6601558,3.6601562c-0.0443726,0-0.0840454,0.0144043-0.125,0.0251465    c-0.0409546-0.0107422-0.0806274-0.0251465-0.125-0.0251465C4.5941663,58.7504883,3.3090098,57.465332,3.3090098,55.8852539z     M56.6913338,55.090332c0,2.0185547-1.6420898,3.6601562-3.6601562,3.6601562H9.2734261    c1.0935669-0.8535156,1.8104858-2.1687012,1.8104858-3.6601562v-3.6381836c0-0.0009766,0.0004883-0.0014648,0.0004883-0.0014648    l-0.0004883-0.003418v-6.1748047l0.0004883-0.0024414l-0.0004883-0.0024414v-6.1757812    c0-0.0009766,0.0004883-0.0014648,0.0004883-0.0014648l-0.0004883-0.003418v-6.1748047    c0-0.0009766,0.0004883-0.0014648,0.0004883-0.0014648l-0.0004883-0.003418V4.909668    c0-2.0175781,1.6420898-3.6591797,3.6601562-3.6591797h38.2871094c2.0180664,0,3.6601562,1.6416016,3.6601562,3.6591797V55.090332    z"/><path d="M31.0194588,32.409668H16.3602791c-0.2763672,0-0.5,0.2236328-0.5,0.5s0.2236328,0.5,0.5,0.5h14.6591797    c0.2763672,0,0.5-0.2236328,0.5-0.5S31.295826,32.409668,31.0194588,32.409668z"/><path d="M51.4808846,32.409668H36.804615c-0.2763672,0-0.5,0.2236328-0.5,0.5s0.2236328,0.5,0.5,0.5h14.6762695    c0.2763672,0,0.5-0.2236328,0.5-0.5S51.7572517,32.409668,51.4808846,32.409668z"/><path d="M31.0194588,38.5893555H16.3602791c-0.2763672,0-0.5,0.2236328-0.5,0.5s0.2236328,0.5,0.5,0.5h14.6591797    c0.2763672,0,0.5-0.2236328,0.5-0.5S31.295826,38.5893555,31.0194588,38.5893555z"/><path d="M51.4808846,38.5893555H36.804615c-0.2763672,0-0.5,0.2236328-0.5,0.5s0.2236328,0.5,0.5,0.5h14.6762695    c0.2763672,0,0.5-0.2236328,0.5-0.5S51.7572517,38.5893555,51.4808846,38.5893555z"/><path d="M31.0194588,44.7700195H16.3602791c-0.2763672,0-0.5,0.2236328-0.5,0.5s0.2236328,0.5,0.5,0.5h14.6591797    c0.2763672,0,0.5-0.2236328,0.5-0.5S31.295826,44.7700195,31.0194588,44.7700195z"/><path d="M51.4808846,44.7700195H36.804615c-0.2763672,0-0.5,0.2236328-0.5,0.5s0.2236328,0.5,0.5,0.5h14.6762695    c0.2763672,0,0.5-0.2236328,0.5-0.5S51.7572517,44.7700195,51.4808846,44.7700195z"/><path d="M31.0194588,50.949707H16.3602791c-0.2763672,0-0.5,0.2236328-0.5,0.5s0.2236328,0.5,0.5,0.5h14.6591797    c0.2763672,0,0.5-0.2236328,0.5-0.5S31.295826,50.949707,31.0194588,50.949707z"/><path d="M51.4808846,50.949707H36.804615c-0.2763672,0-0.5,0.2236328-0.5,0.5s0.2236328,0.5,0.5,0.5h14.6762695    c0.2763672,0,0.5-0.2236328,0.5-0.5S51.7572517,50.949707,51.4808846,50.949707z"/><path d="M50.4808846,8.050293H17.35149c-0.8271484,0-1.5,0.6728516-1.5,1.5v14.5585938c0,0.8271484,0.6728516,1.5,1.5,1.5    h33.1293945c0.8271484,0,1.5-0.6728516,1.5-1.5V9.550293C51.9808846,8.7231445,51.308033,8.050293,50.4808846,8.050293z     M50.9808846,24.1088867c0,0.2753906-0.2241211,0.5-0.5,0.5H17.35149c-0.2758789,0-0.5-0.2246094-0.5-0.5V9.550293    c0-0.2753906,0.2241211-0.5,0.5-0.5h33.1293945c0.2758789,0,0.5,0.2246094,0.5,0.5V24.1088867z"/></g></g><text x="0" y="75" fill="#000000" font-size="5px" font-weight="bold" font-family="'Helvetica Neue', Helvetica, Arial-Unicode, Arial, Sans-serif">Created by Josh Sorosky</text><text x="0" y="80" fill="#000000" font-size="5px" font-weight="bold" font-family="'Helvetica Neue', Helvetica, Arial-Unicode, Arial, Sans-serif">from the Noun Project</text></svg>