<?xml version="1.0" encoding="UTF-8" standalone="no"?>
<svg width="56px" height="60px" viewBox="0 0 56 60" version="1.1" xmlns="http://www.w3.org/2000/svg" xmlns:xlink="http://www.w3.org/1999/xlink" xmlns:sketch="http://www.bohemiancoding.com/sketch/ns">
    <!-- Generator: Sketch 3.3.3 (12081) - http://www.bohemiancoding.com/sketch -->
    <title>blog copy</title>
    <desc>Created with Sketch.</desc>
    <defs></defs>
    <g id="Page-1" stroke="none" stroke-width="1" fill="none" fill-rule="evenodd" sketch:type="MSPage">
        <g id="blog" sketch:type="MSLayerGroup" fill="#000000">
            <g id="Group" sketch:type="MSShapeGroup">
                <path d="M51.0311775,0.2504883 L12.7440681,0.2504883 C10.1742439,0.2504883 8.0839119,2.3403321 8.0839119,4.909668 L8.0839119,15.8500977 L4.1737561,15.8500977 C2.0428967,15.8500977 0.3090098,17.5844727 0.3090098,19.7153321 L0.3090098,55.885254 C0.3090098,58.0161134 2.0428968,59.7504884 4.1737561,59.7504884 C4.2181287,59.7504884 4.2578015,59.7360841 4.2987561,59.7253419 C4.3397107,59.7360841 4.3793835,59.7504884 4.4237561,59.7504884 L51.031178,59.7504884 C53.6010022,59.7504884 55.6913342,57.6596681 55.6913342,55.0903322 L55.6913342,4.909668 C55.6913338,2.340332 53.6010017,0.2504883 51.0311775,0.2504883 L51.0311775,0.2504883 Z M1.3090098,55.8852539 L1.3090098,19.715332 C1.3090098,18.1352539 2.5941663,16.8500976 4.1737561,16.8500976 L8.0839119,16.8500976 L8.0839119,32.409668 L6.5131111,32.409668 C6.2367439,32.409668 6.0131111,32.6333008 6.0131111,32.909668 C6.0131111,33.1860352 6.2367439,33.409668 6.5131111,33.409668 L8.0839119,33.409668 L8.0839119,38.5893555 L6.5131111,38.5893555 C6.2367439,38.5893555 6.0131111,38.8129883 6.0131111,39.0893555 C6.0131111,39.3657227 6.2367439,39.5893555 6.5131111,39.5893555 L8.0839119,39.5893555 L8.0839119,44.7700196 L6.5131111,44.7700196 C6.2367439,44.7700196 6.0131111,44.9936524 6.0131111,45.2700196 C6.0131111,45.5463868 6.2367439,45.7700196 6.5131111,45.7700196 L8.0839119,45.7700196 L8.0839119,50.9497071 L6.5131111,50.9497071 C6.2367439,50.9497071 6.0131111,51.1733399 6.0131111,51.4497071 C6.0131111,51.7260743 6.2367439,51.9497071 6.5131111,51.9497071 L8.0839119,51.9497071 L8.0839119,55.0903321 C8.0839119,57.1088868 6.4418221,58.7504883 4.4237561,58.7504883 C4.3793835,58.7504883 4.3397107,58.7648926 4.2987561,58.7756348 C4.2578015,58.7648926 4.2181287,58.7504883 4.1737561,58.7504883 C2.5941663,58.7504883 1.3090098,57.465332 1.3090098,55.8852539 L1.3090098,55.8852539 Z M54.6913338,55.090332 C54.6913338,57.1088867 53.049244,58.7504882 51.0311776,58.7504882 L7.2734261,58.7504882 C8.366993,57.8969726 9.0839119,56.581787 9.0839119,55.090332 L9.0839119,51.4521484 C9.0839119,51.4511718 9.0844002,51.4506836 9.0844002,51.4506836 L9.0839119,51.4472656 L9.0839119,45.2724609 L9.0844002,45.2700195 L9.0839119,45.2675781 L9.0839119,39.0917969 C9.0839119,39.0908203 9.0844002,39.0903321 9.0844002,39.0903321 L9.0839119,39.0869141 L9.0839119,32.9121094 C9.0839119,32.9111328 9.0844002,32.9106446 9.0844002,32.9106446 L9.0839119,32.9072266 L9.0839119,4.909668 C9.0839119,2.8920899 10.7260017,1.2504883 12.7440681,1.2504883 L51.0311775,1.2504883 C53.0492439,1.2504883 54.6913337,2.8920899 54.6913337,4.909668 L54.6913337,55.090332 L54.6913338,55.090332 Z" id="Shape"></path>
                <path d="M29.0194588,32.409668 L14.3602791,32.409668 C14.0839119,32.409668 13.8602791,32.6333008 13.8602791,32.909668 C13.8602791,33.1860352 14.0839119,33.409668 14.3602791,33.409668 L29.0194588,33.409668 C29.295826,33.409668 29.5194588,33.1860352 29.5194588,32.909668 C29.5194588,32.6333008 29.295826,32.409668 29.0194588,32.409668 L29.0194588,32.409668 Z" id="Shape"></path>
                <path d="M49.4808846,32.409668 L34.804615,32.409668 C34.5282478,32.409668 34.304615,32.6333008 34.304615,32.909668 C34.304615,33.1860352 34.5282478,33.409668 34.804615,33.409668 L49.4808845,33.409668 C49.7572517,33.409668 49.9808845,33.1860352 49.9808845,32.909668 C49.9808845,32.6333008 49.7572517,32.409668 49.4808846,32.409668 L49.4808846,32.409668 Z" id="Shape"></path>
                <path d="M29.0194588,38.5893555 L14.3602791,38.5893555 C14.0839119,38.5893555 13.8602791,38.8129883 13.8602791,39.0893555 C13.8602791,39.3657227 14.0839119,39.5893555 14.3602791,39.5893555 L29.0194588,39.5893555 C29.295826,39.5893555 29.5194588,39.3657227 29.5194588,39.0893555 C29.5194588,38.8129883 29.295826,38.5893555 29.0194588,38.5893555 L29.0194588,38.5893555 Z" id="Shape"></path>
                <path d="M49.4808846,38.5893555 L34.804615,38.5893555 C34.5282478,38.5893555 34.304615,38.8129883 34.304615,39.0893555 C34.304615,39.3657227 34.5282478,39.5893555 34.804615,39.5893555 L49.4808845,39.5893555 C49.7572517,39.5893555 49.9808845,39.3657227 49.9808845,39.0893555 C49.9808845,38.8129883 49.7572517,38.5893555 49.4808846,38.5893555 L49.4808846,38.5893555 Z" id="Shape"></path>
                <path d="M29.0194588,44.7700195 L14.3602791,44.7700195 C14.0839119,44.7700195 13.8602791,44.9936523 13.8602791,45.2700195 C13.8602791,45.5463867 14.0839119,45.7700195 14.3602791,45.7700195 L29.0194588,45.7700195 C29.295826,45.7700195 29.5194588,45.5463867 29.5194588,45.2700195 C29.5194588,44.9936523 29.295826,44.7700195 29.0194588,44.7700195 L29.0194588,44.7700195 Z" id="Shape"></path>
                <path d="M49.4808846,44.7700195 L34.804615,44.7700195 C34.5282478,44.7700195 34.304615,44.9936523 34.304615,45.2700195 C34.304615,45.5463867 34.5282478,45.7700195 34.804615,45.7700195 L49.4808845,45.7700195 C49.7572517,45.7700195 49.9808845,45.5463867 49.9808845,45.2700195 C49.9808845,44.9936523 49.7572517,44.7700195 49.4808846,44.7700195 L49.4808846,44.7700195 Z" id="Shape"></path>
                <path d="M29.0194588,50.949707 L14.3602791,50.949707 C14.0839119,50.949707 13.8602791,51.1733398 13.8602791,51.449707 C13.8602791,51.7260742 14.0839119,51.949707 14.3602791,51.949707 L29.0194588,51.949707 C29.295826,51.949707 29.5194588,51.7260742 29.5194588,51.449707 C29.5194588,51.1733398 29.295826,50.949707 29.0194588,50.949707 L29.0194588,50.949707 Z" id="Shape"></path>
                <path d="M49.4808846,50.949707 L34.804615,50.949707 C34.5282478,50.949707 34.304615,51.1733398 34.304615,51.449707 C34.304615,51.7260742 34.5282478,51.949707 34.804615,51.949707 L49.4808845,51.949707 C49.7572517,51.949707 49.9808845,51.7260742 49.9808845,51.449707 C49.9808845,51.1733398 49.7572517,50.949707 49.4808846,50.949707 L49.4808846,50.949707 Z" id="Shape"></path>
                <path d="M48.4808846,8.050293 L15.35149,8.050293 C14.5243416,8.050293 13.85149,8.7231446 13.85149,9.550293 L13.85149,24.1088868 C13.85149,24.9360352 14.5243416,25.6088868 15.35149,25.6088868 L48.4808845,25.6088868 C49.3080329,25.6088868 49.9808845,24.9360352 49.9808845,24.1088868 L49.9808845,9.550293 C49.9808846,8.7231445 49.308033,8.050293 48.4808846,8.050293 L48.4808846,8.050293 Z M48.9808846,24.1088867 C48.9808846,24.3842773 48.7567635,24.6088867 48.4808846,24.6088867 L15.35149,24.6088867 C15.0756111,24.6088867 14.85149,24.3842773 14.85149,24.1088867 L14.85149,9.550293 C14.85149,9.2749024 15.0756111,9.050293 15.35149,9.050293 L48.4808845,9.050293 C48.7567634,9.050293 48.9808845,9.2749024 48.9808845,9.550293 L48.9808845,24.1088867 L48.9808846,24.1088867 Z" id="Shape"></path>
            </g>
        </g>
    </g>
</svg>