<?xml version="1.0" encoding="UTF-8" standalone="no"?>
<svg width="58px" height="62px" viewBox="0 0 58 62" version="1.1" xmlns="http://www.w3.org/2000/svg" xmlns:xlink="http://www.w3.org/1999/xlink" xmlns:sketch="http://www.bohemiancoding.com/sketch/ns">
    <!-- Generator: Sketch 3.3.3 (12081) - http://www.bohemiancoding.com/sketch -->
    <title>Oval 1 + layers</title>
    <desc>Created with Sketch.</desc>
    <defs></defs>
    <g id="Page-1" stroke="none" stroke-width="1" fill="none" fill-rule="evenodd" sketch:type="MSPage">
        <g id="Oval-1-+-layers" sketch:type="MSLayerGroup" transform="translate(1.000000, 1.000000)">
            <path d="M28,60 C43.463973,60 56,46.5685425 56,30 C56,13.4314575 43.463973,0 28,0 C12.536027,0 0,13.4314575 0,30 C0,46.5685425 12.536027,60 28,60 Z" id="Oval-1" stroke="#979797" fill="#FFFFFF" sketch:type="MSShapeGroup"></path>
            <g id="layers" transform="translate(28.164706, 30.000000) rotate(-90.000000) translate(-28.164706, -30.000000) translate(12.023529, 12.529412)" sketch:type="MSShapeGroup">
                <g id="Group">
                    <path d="M15.365,0.509558824 L0.485882353,8.80808824 C-0.125588235,9.17205882 -0.125588235,10.1911765 0.485882353,10.5551471 L15.365,18.8536765 C15.7726471,19.0720588 16.2482353,19.0720588 16.6558824,18.8536765 L31.535,10.5551471 C32.1464706,10.1911765 32.1464706,9.17205882 31.535,8.80808824 L16.5879412,0.509558824 C16.1802941,0.291176471 15.7726471,0.291176471 15.365,0.509558824 L15.365,0.509558824 Z" id="Shape" fill="#4990E2"></path>
                    <path d="M31.4670588,16.5242647 L28.6814706,14.9955882 C28.5455882,14.9227941 28.3417647,14.9227941 28.1379412,14.9955882 L17.4711765,20.9647059 C16.9955882,21.2558824 16.4520588,21.3286765 15.9764706,21.3286765 C15.4329412,21.3286765 14.9573529,21.1830882 14.4817647,20.9647059 L3.815,14.9955882 C3.67911765,14.9227941 3.47529412,14.9227941 3.27147059,14.9955882 L0.485882353,16.5242647 C-0.125588235,16.8882353 -0.125588235,17.9073529 0.485882353,18.2713235 L15.365,26.5698529 C15.7726471,26.7882353 16.2482353,26.7882353 16.6558824,26.5698529 L31.535,18.2713235 C32.0785294,17.9073529 32.0785294,16.8882353 31.4670588,16.5242647 L31.4670588,16.5242647 Z" id="Shape" fill="#FF5722"></path>
                    <path d="M31.4670588,24.3860294 L28.6814706,22.8573529 C28.5455882,22.7845588 28.3417647,22.7845588 28.1379412,22.8573529 L17.4711765,28.8264706 C16.9955882,29.1176471 16.4520588,29.1904412 15.9764706,29.1904412 C15.4329412,29.1904412 14.9573529,29.0448529 14.4817647,28.8264706 L3.815,22.8573529 C3.67911765,22.7845588 3.47529412,22.7845588 3.27147059,22.8573529 L0.485882353,24.3860294 C-0.125588235,24.75 -0.125588235,25.7691176 0.485882353,26.1330882 L15.365,34.4316176 C15.7726471,34.65 16.2482353,34.65 16.6558824,34.4316176 L31.535,26.1330882 C32.0785294,25.7691176 32.0785294,24.75 31.4670588,24.3860294 L31.4670588,24.3860294 Z" id="Shape" fill="#F1C40F"></path>
                </g>
            </g>
        </g>
    </g>
</svg>