<?xml version="1.0" encoding="UTF-8" standalone="no"?>
<svg width="56px" height="60px" viewBox="0 0 56 60" version="1.1" xmlns="http://www.w3.org/2000/svg" xmlns:xlink="http://www.w3.org/1999/xlink" xmlns:sketch="http://www.bohemiancoding.com/sketch/ns">
    <!-- Generator: Sketch 3.3.3 (12081) - http://www.bohemiancoding.com/sketch -->
    <title>person</title>
    <desc>Created with Sketch.</desc>
    <defs></defs>
    <g id="Page-1" stroke="none" stroke-width="1" fill="none" fill-rule="evenodd" sketch:type="MSPage">
        <g id="person" sketch:type="MSLayerGroup" fill="#000000">
            <path d="M55.3649744,53.2095105 C50.1921538,44.2925874 43.7912821,38.2959441 36.833641,35.5569231 C40.6046667,32.0727273 43.0884103,26.4386014 43.0884103,20.0593007 C43.0884103,9.48083916 36.3400513,0.876083916 28.0398462,0.876083916 C19.7435897,0.876083916 12.9952308,9.48083916 12.9952308,20.0593007 C12.9952308,26.5040559 15.5224103,32.1885315 19.3566154,35.6777622 C12.4937436,38.4620979 6.18369231,44.4033566 1.08194872,53.2145455 C0.110564103,54.8861538 0.383025641,57.2626573 1.69794872,58.4962238 C2.23102564,58.9997203 2.84702564,59.2313287 3.45512821,59.2313287 C4.35938462,59.2313287 5.25969231,58.7026573 5.84015385,57.6956643 C11.9369744,47.1776224 19.8857436,41.3823776 28.2175385,41.3823776 C36.5453846,41.3823776 44.5020513,47.1725874 50.5949231,57.6956643 C51.5584103,59.3773427 53.4222051,59.7197203 54.7371282,58.4811189 C56.0520513,57.2425175 56.3403077,54.8861538 55.3649744,53.2095105 L55.3649744,53.2095105 Z M28.0437949,8.42853147 C33.0744615,8.42853147 37.1692821,13.6447552 37.1692821,20.0593007 C37.1692821,26.4738462 33.0784103,31.6951049 28.0437949,31.6951049 C23.0170769,31.6951049 18.9222564,26.4788811 18.9222564,20.0593007 C18.9222564,13.6447552 23.0131282,8.42853147 28.0437949,8.42853147 L28.0437949,8.42853147 Z" id="Shape" sketch:type="MSShapeGroup"></path>
        </g>
    </g>
</svg>