<svg xmlns="http://www.w3.org/2000/svg" xmlns:xlink="http://www.w3.org/1999/xlink" version="1.1" x="0px" y="0px" viewBox="378 594 36 45" enable-background="new 378 594 36 36" xml:space="preserve"><g><path fill="none" d="M396.574,615.359c-0.088,0-0.177-0.017-0.261-0.047l-1.922-0.713c-0.042,0.105-0.101,0.205-0.19,0.286   c-0.502,0.447-1.639,1.649-2.087,2.813c1.163-0.084,3.025,0.006,4.521,1.127c1.441-1.098,3.161-1.206,4.267-1.132   c-0.449-1.165-1.584-2.362-2.086-2.809c-0.076-0.066-0.135-0.146-0.177-0.232l-1.807,0.66   C396.749,615.344,396.661,615.359,396.574,615.359z"/><polygon fill="none" points="390.563,611.581 396.576,613.81 402.68,611.579 396.576,609.782  "/><path fill="#000000" d="M405.286,610.783l-8.5-2.502c-0.139-0.041-0.288-0.041-0.427,0l-8.375,2.505   c-0.31,0.093-0.524,0.372-0.535,0.695c-0.01,0.321,0.187,0.614,0.489,0.727l4.965,1.841c-0.738,0.723-2.477,2.623-2.477,4.535   c0,0.229,0.105,0.445,0.285,0.588c0.18,0.144,0.414,0.193,0.638,0.144c0.03-0.009,3.03-0.691,4.757,1.033   c0.146,0.146,0.338,0.221,0.529,0.221c0.192,0,0.384-0.073,0.53-0.221c1.704-1.706,4.458-1.044,4.485-1.038   c0.225,0.058,0.462,0.009,0.645-0.135c0.185-0.142,0.291-0.359,0.291-0.592c0-1.868-1.662-3.729-2.427-4.487l3.129-1.144v4.19   c0,0.414,0.336,0.75,0.75,0.75s0.75-0.336,0.75-0.75v-4.738l0.542-0.198c0.304-0.111,0.502-0.405,0.492-0.729   C405.813,611.155,405.597,610.875,405.286,610.783z M398.814,614.887c0.502,0.445,1.637,1.644,2.086,2.809   c-1.104-0.074-2.824,0.033-4.267,1.132c-1.494-1.121-3.357-1.211-4.521-1.127c0.447-1.163,1.585-2.365,2.087-2.813   c0.09-0.081,0.148-0.181,0.19-0.286l1.922,0.712c0.084,0.031,0.172,0.048,0.261,0.048c0.087,0,0.174-0.017,0.257-0.046l1.807-0.66   C398.681,614.739,398.738,614.819,398.814,614.887z M396.576,613.81l-6.015-2.229l6.014-1.799l6.104,1.797L396.576,613.81z"/></g><text x="378" y="645" fill="#000000" font-size="5px" font-weight="bold" font-family="'Helvetica Neue', Helvetica, Arial-Unicode, Arial, Sans-serif">Created by Ash N</text><text x="378" y="650" fill="#000000" font-size="5px" font-weight="bold" font-family="'Helvetica Neue', Helvetica, Arial-Unicode, Arial, Sans-serif">from the Noun Project</text></svg>