<?xml version="1.0" encoding="UTF-8" standalone="no"?>
<svg width="55px" height="57px" viewBox="0 0 55 57" version="1.1" xmlns="http://www.w3.org/2000/svg" xmlns:xlink="http://www.w3.org/1999/xlink" xmlns:sketch="http://www.bohemiancoding.com/sketch/ns">
    <!-- Generator: Sketch 3.3.3 (12081) - http://www.bohemiancoding.com/sketch -->
    <title>work</title>
    <desc>Created with Sketch.</desc>
    <defs></defs>
    <g id="Page-1" stroke="none" stroke-width="1" fill="none" fill-rule="evenodd" sketch:type="MSPage">
        <g id="work" sketch:type="MSLayerGroup" transform="translate(-1.000000, -1.000000)">
            <g id="Group" sketch:type="MSShapeGroup">
                <path d="M28.2181053,33.9646154 C27.9587368,33.9646154 27.6964211,33.8861538 27.4488421,33.7476923 L21.784,30.4569231 C21.6602105,30.9415385 21.4863158,31.4030769 21.224,31.7769231 C19.7444211,33.84 16.3932632,39.3876923 15.0728421,44.76 C18.5006316,44.3723077 23.9886316,44.7876923 28.3978947,49.9615385 C32.6450526,44.8938462 37.7145263,44.3953846 40.9743158,44.7369231 C39.6509474,39.36 36.3056842,33.8353846 34.8261053,31.7723077 C34.6021053,31.4676923 34.4282105,31.0984615 34.3044211,30.7015385 L28.9785263,33.7476923 C28.7338947,33.8953846 28.4745263,33.9646154 28.2181053,33.9646154 L28.2181053,33.9646154 Z" id="Shape"></path>
                <path d="M10.5014737,16.5276923 L28.224,26.8153846 L46.2147368,16.5184615 L28.224,8.22461538 L10.5014737,16.5276923 Z" id="Shape"></path>
                <path d="M53.8955789,12.8446154 L28.8429474,1.29692308 C28.4332632,1.10769231 27.9941053,1.10769231 27.5844211,1.29692308 L2.90021053,12.8584615 C1.98652632,13.2876923 1.35578947,14.5753846 1.32336842,16.0661538 C1.29389474,17.5476923 1.87452632,18.9 2.76463158,19.4215385 L17.3983158,27.9184615 C15.2231579,31.2553846 10.0976842,40.0246154 10.0976842,48.8492308 C10.0976842,49.9061538 10.4071579,50.9030769 10.9376842,51.5630769 C11.4682105,52.2276923 12.1578947,52.4538462 12.8181053,52.2276923 C12.9065263,52.1861538 21.7486316,49.0384615 26.8387368,56.9953846 C27.2690526,57.6692308 27.8349474,58.0153846 28.3978947,58.0153846 C28.9637895,58.0153846 29.5296842,57.6784615 29.96,56.9953846 C34.9823158,49.1215385 43.0993684,52.1769231 43.1789474,52.2046154 C43.8421053,52.4723077 44.5406316,52.2461538 45.08,51.5815385 C45.6252632,50.9261538 45.9376842,49.9246154 45.9376842,48.8492308 C45.9376842,40.2276923 41.0391579,31.6384615 38.7844211,28.14 L48.0067368,22.86 L48.0067368,42.1984615 C48.0067368,44.1092308 48.9970526,45.66 50.2172632,45.66 C51.4374737,45.66 52.4277895,44.1092308 52.4277895,42.1984615 L52.4277895,20.3307692 L54.0252632,19.4169231 C54.9212632,18.9046154 55.5048421,17.5476923 55.4753684,16.0523077 C55.4488421,14.5615385 54.8122105,13.2692308 53.8955789,12.8446154 L53.8955789,12.8446154 Z M34.8202105,31.7861538 C36.2997895,33.84 39.6450526,39.3738462 40.9684211,44.7507692 C37.7145263,44.4092308 32.6450526,44.9030769 28.392,49.9753846 C23.9886316,44.8015385 18.4976842,44.3861538 15.0669474,44.7738462 C16.3844211,39.4061538 19.7385263,33.8584615 21.2181053,31.7907692 C21.4833684,31.4169231 21.6543158,30.9553846 21.7781053,30.4707692 L27.4429474,33.7569231 C27.6905263,33.9 27.9498947,33.9784615 28.2122105,33.9784615 C28.4686316,33.9784615 28.7250526,33.9 28.9696842,33.7661538 L34.2955789,30.72 C34.4282105,31.1030769 34.5962105,31.4723077 34.8202105,31.7861538 L34.8202105,31.7861538 Z M28.224,26.8153846 L10.4955789,16.5276923 L28.2210526,8.22461538 L46.2117895,16.5184615 L28.224,26.8153846 L28.224,26.8153846 Z" id="Shape" fill="#000000"></path>
            </g>
        </g>
    </g>
</svg>