<svg xmlns="http://www.w3.org/2000/svg" xmlns:xlink="http://www.w3.org/1999/xlink" version="1.1" x="0px" y="0px" viewBox="378 594 36 45" enable-background="new 378 594 36 36" xml:space="preserve"><path fill="#000000" d="M403.609,618.402l-6.535-6.535c0.096-0.394,0.162-0.794,0.162-1.206c0-1.357-0.529-2.634-1.489-3.594  c-1.447-1.447-3.712-1.878-5.58-1.086c-0.07,0.029-0.14,0.073-0.198,0.124c-0.158,0.136-0.253,0.332-0.261,0.541  c-0.008,0.208,0.071,0.41,0.219,0.559l2.557,2.557l0.006,1.234l-1.234-0.006l-2.557-2.557c-0.177-0.177-0.444-0.229-0.69-0.178  c-0.246,0.049-0.463,0.245-0.559,0.479c-0.251,0.613-0.378,1.263-0.377,1.928c0,2.803,2.279,5.083,5.082,5.083  c0.41,0,0.811-0.066,1.205-0.162l6.535,6.535c0.496,0.496,1.156,0.771,1.858,0.771c0,0,0,0,0.001,0c0.701,0,1.36-0.273,1.855-0.77  c0.496-0.495,0.77-1.155,0.77-1.856C404.379,619.559,404.105,618.899,403.609,618.402z M402.549,621.058  c-0.425,0.428-1.166,0.428-1.594-0.001l-6.799-6.798c-0.01-0.012-0.021-0.021-0.032-0.03l-0.005-0.007  c-0.005-0.005-0.012-0.007-0.019-0.012c-0.065-0.062-0.139-0.112-0.221-0.146c-0.021-0.011-0.045-0.012-0.067-0.019  c-0.067-0.021-0.136-0.04-0.209-0.041c-0.035-0.001-0.069,0.011-0.104,0.015c-0.052,0.008-0.104,0.005-0.155,0.021  c-0.382,0.135-0.783,0.203-1.189,0.203c-1.976,0-3.582-1.607-3.582-3.583c0-0.076,0.002-0.151,0.007-0.227l1.834,1.833  c0.14,0.141,0.329,0.22,0.526,0.221l2.3,0.011c0.215,0.016,0.393-0.078,0.534-0.22c0.141-0.143,0.221-0.334,0.22-0.534l-0.011-2.3  c-0.002-0.197-0.08-0.388-0.221-0.526l-1.833-1.834c1.017-0.059,2.028,0.313,2.758,1.043c0.677,0.677,1.05,1.576,1.05,2.533  c0,0.41-0.067,0.809-0.201,1.186c-0.012,0.035-0.008,0.07-0.016,0.106c-0.011,0.056-0.024,0.109-0.022,0.166  c0.001,0.05,0.017,0.095,0.028,0.143c0.01,0.047,0.016,0.093,0.034,0.137c0.023,0.053,0.062,0.097,0.096,0.144  c0.021,0.028,0.031,0.062,0.057,0.086l6.837,6.836c0.213,0.214,0.33,0.497,0.33,0.798S402.762,620.844,402.549,621.058z"/><text x="378" y="645" fill="#000000" font-size="5px" font-weight="bold" font-family="'Helvetica Neue', Helvetica, Arial-Unicode, Arial, Sans-serif">Created by Ash N</text><text x="378" y="650" fill="#000000" font-size="5px" font-weight="bold" font-family="'Helvetica Neue', Helvetica, Arial-Unicode, Arial, Sans-serif">from the Noun Project</text></svg>