<?xml version="1.0" encoding="UTF-8" standalone="no"?>
<svg width="56px" height="60px" viewBox="0 0 56 60" version="1.1" xmlns="http://www.w3.org/2000/svg" xmlns:xlink="http://www.w3.org/1999/xlink" xmlns:sketch="http://www.bohemiancoding.com/sketch/ns">
    <!-- Generator: Sketch 3.3.3 (12081) - http://www.bohemiancoding.com/sketch -->
    <title>skills</title>
    <desc>Created with Sketch.</desc>
    <defs></defs>
    <g id="Page-1" stroke="none" stroke-width="1" fill="none" fill-rule="evenodd" sketch:type="MSPage">
        <g id="skills" sketch:type="MSLayerGroup" fill="#000000">
            <path d="M52.7927447,44.6571968 L32.0173184,22.3640102 C32.3225122,21.0199374 32.5323328,19.6553965 32.5323328,18.2499194 C32.5323328,13.6207144 30.8505883,9.26441768 27.7986512,5.98951956 C23.1984917,1.05329291 15.9978275,-0.41699989 10.0592665,2.28479106 C9.83672943,2.38372027 9.61419235,2.53381977 9.42980448,2.70779873 C8.92750649,3.17174263 8.62549187,3.84036767 8.60005907,4.55334028 C8.57462626,5.26290154 8.82577525,5.95199468 9.29628223,6.46028616 L17.425244,15.1831138 L17.4443186,19.3927224 L13.5213077,19.3722543 L5.39234596,10.6494267 C4.82964505,10.0456173 3.98082503,9.86822702 3.19876614,10.042206 C2.41670725,10.2093622 1.72684229,10.8779873 1.42164857,11.6762437 C0.623694174,13.7674026 0.219948323,15.9847815 0.223127424,18.2533307 C0.223127424,27.815351 7.46829904,35.593234 16.3793197,35.593234 C17.6827512,35.593234 18.9575707,35.3680848 20.2101366,35.040595 L40.9855629,57.3337816 C42.5623971,59.0258123 44.6606039,59.9639342 46.8923329,59.9639342 L46.895512,59.9639342 C49.124062,59.9639342 51.2190896,59.032635 52.7927447,57.337193 C54.3695789,55.6485736 55.2406527,53.3970812 55.2406527,51.0057233 C55.2406527,48.6041313 54.3695789,46.3526389 52.7927447,44.6571968 L52.7927447,44.6571968 Z M49.4228975,53.7177483 C48.0717795,55.177807 45.7160655,55.177807 44.3554102,53.7143369 L22.7407012,30.5239646 C22.7089102,30.4830284 22.67394,30.4523262 22.6389699,30.4216241 L22.6230744,30.3977446 C22.6071789,30.3806878 22.5849252,30.3738651 22.5626715,30.3568084 C22.3560299,30.1453045 22.1207764,29.9747369 21.8600901,29.858751 C21.793329,29.8212261 21.7170306,29.8178147 21.6470904,29.7939353 C21.4340906,29.7222969 21.2147326,29.6574812 20.9826582,29.6540698 C20.8713897,29.6506585 20.7633002,29.6915947 20.6520317,29.7052401 C20.4867184,29.7325309 20.3214052,29.7222969 20.159271,29.7768785 C18.9448543,30.2374111 17.6700348,30.469383 16.3793197,30.469383 C10.0974157,30.469383 4.99177921,24.98734 4.99177921,18.246508 C4.99177921,17.9872453 4.99813741,17.7313939 5.01403292,17.4721311 L10.8445045,23.7251397 C11.2895787,24.2061403 11.8904288,24.4756372 12.5167117,24.4790485 L19.8286445,24.5165734 C20.5121512,24.571155 21.0780312,24.2504879 21.5262845,23.7660759 C21.9745378,23.2782525 22.2288659,22.6266843 22.2256868,21.9444138 L22.1907167,14.0983038 C22.1843585,13.4262674 21.9363886,12.7746991 21.4881353,12.3039325 L15.6608428,6.04751254 C18.8939887,5.84624276 22.10806,7.11526579 24.4288039,9.6055529 C26.5810554,11.9150383 27.7668602,14.981844 27.7668602,18.246508 C27.7668602,19.6451624 27.5538604,21.006292 27.1278608,22.2923718 C27.0897116,22.4117691 27.102428,22.5311664 27.0769952,22.6539751 C27.0420251,22.8450108 27.0006968,23.0258125 27.007055,23.2202596 C27.0102341,23.3908272 27.0610997,23.544338 27.0960698,23.7080829 C27.1278608,23.8684165 27.1469354,24.0253387 27.2041592,24.1754382 C27.2772786,24.3562398 27.4012635,24.5063393 27.509353,24.6666729 C27.5761141,24.7621908 27.6079051,24.8781767 27.6905617,24.9600492 L49.4260766,48.2800529 C50.1032251,49.0100822 50.47518,49.9754949 50.47518,51.0023119 C50.47518,52.029129 50.100046,52.9877189 49.4228975,53.7177483 L49.4228975,53.7177483 Z" id="Shape" sketch:type="MSShapeGroup"></path>
        </g>
    </g>
</svg>